<?xml version="1.0" encoding="UTF-8"?>
<svg version="1.1" xmlns="http://www.w3.org/2000/svg" width="500" height="500">
<path d="M0 0 C165 0 330 0 500 0 C500 165 500 330 500 500 C335 500 170 500 0 500 C0 335 0 170 0 0 Z " fill="#FEFEFE" transform="translate(0,0)"/>
<path d="M0 0 C0.99 -0.00773438 1.98 -0.01546875 3 -0.0234375 C20.33879056 0.02231129 34.87602275 6.8520774 47.5 18.625 C50.97381541 22.30672456 53.54012999 26.57372824 56.14453125 30.89453125 C57.54798215 33.32124445 57.54798215 33.32124445 59.625 35.25 C60.07230469 34.52554688 60.51960938 33.80109375 60.98046875 33.0546875 C69.785912 18.97348827 80.07098215 9.75548275 95.625 3.25 C96.25414307 2.98219727 96.88328613 2.71439453 97.53149414 2.43847656 C104.19779277 -0.11945986 110.60329476 -0.28874136 117.6875 -0.25 C118.88109131 -0.24500488 120.07468262 -0.24000977 121.30444336 -0.23486328 C137.79015104 0.08919659 151.20429721 4.95588192 163.3125 16.375 C177.5640087 31.25051543 181.17945697 48.62135198 180.90234375 68.5546875 C179.8101563 100.49437819 163.66275533 129.4379193 141.00390625 151.15625 C135.52117568 156.25883186 129.68242517 160.85246234 123.625 165.25 C123.05620117 165.66314453 122.48740234 166.07628906 121.90136719 166.50195312 C106.75363034 177.34508637 90.11863668 185.88292243 73.1875 193.5625 C72.13965332 194.04904053 71.09180664 194.53558105 70.01220703 195.03686523 C63.35095591 197.9739353 59.3316155 199.04121592 52.32006836 196.37280273 C49.61423276 195.25550617 46.96482026 194.05137916 44.3125 192.8125 C43.34554199 192.36511475 42.37858398 191.91772949 41.38232422 191.45678711 C21.94788331 182.33980896 3.85391585 171.37250789 -12.375 157.25 C-13.37273437 156.38632812 -14.37046875 155.52265625 -15.3984375 154.6328125 C-38.37333109 134.38553185 -54.63078626 105.0109518 -57.375 74.25 C-58.64771635 53.07805865 -56.36056197 34.69169766 -42.125 18 C-30.4423385 5.65087795 -16.79661632 -0.13020633 0 0 Z " fill="#8DE14E" transform="translate(188.375,165.75)"/>
</svg>
