<?xml version="1.0" encoding="UTF-8"?>
<svg version="1.1" xmlns="http://www.w3.org/2000/svg" width="500" height="500">
<path d="M0 0 C165 0 330 0 500 0 C500 165 500 330 500 500 C335 500 170 500 0 500 C0 335 0 170 0 0 Z " fill="#8BDF4C" transform="translate(0,0)"/>
<path d="M0 0 C165 0 330 0 500 0 C500 165 500 330 500 500 C335 500 170 500 0 500 C0 335 0 170 0 0 Z M105 87 C104.22914062 87.66 103.45828125 88.32 102.6640625 89 C95.08704294 95.50288269 88.52787935 102.48043192 82.33349609 110.3203125 C81.4030311 111.49233725 80.4652569 112.6585802 79.52197266 113.8203125 C70.30825196 125.1815057 62.92265978 137.12935095 56 150 C55.10861328 151.61455078 55.10861328 151.61455078 54.19921875 153.26171875 C29.2515646 200.40000866 24.79638279 259.98733738 40.29492188 310.73291016 C40.52759766 311.4810498 40.76027344 312.22918945 41 313 C41.23525391 313.77263184 41.47050781 314.54526367 41.71289062 315.34130859 C48.30305151 336.61153102 58.0939866 356.85138276 71 375 C71.59723877 375.84739746 71.59723877 375.84739746 72.20654297 376.71191406 C77.33229856 383.928806 82.99534415 390.51011944 89 397 C89.82757813 397.93070312 90.65515625 398.86140625 91.5078125 399.8203125 C96.39324379 405.30335007 101.35323966 410.31482566 107 415 C107.8353125 415.73476563 108.670625 416.46953125 109.53125 417.2265625 C133.39784218 437.88034419 162.52013222 452.91261711 193 461 C194.37091797 461.39058594 194.37091797 461.39058594 195.76953125 461.7890625 C201.95120156 463.46344105 208.18332316 464.60752779 214.5 465.625 C215.25877441 465.74818604 216.01754883 465.87137207 216.79931641 465.99829102 C272.57561192 474.58610753 331.57683898 460.92975056 377.23535156 427.54956055 C384.16439634 422.38046708 390.69082242 416.91422104 397 411 C398.00719411 410.09161609 399.01641802 409.18547922 400.02734375 408.28125 C405.73886766 403.15758608 411.17277642 397.98245657 416 392 C416.83015625 390.98421875 417.6603125 389.9684375 418.515625 388.921875 C435.51214593 367.87813286 447.65953468 345.38026862 457 320 C457.28246582 319.23413574 457.56493164 318.46827148 457.85595703 317.67919922 C465.54799755 296.33492614 468.43726959 272.54247996 468.3125 249.9375 C468.31034485 249.22522247 468.3081897 248.51294495 468.30596924 247.77908325 C468.00669862 185.62680244 440.71967016 131.84672061 397.49609375 88.48828125 C363.75845876 56.74556728 319.36815463 38.98253131 274 33 C273.29423828 32.89091309 272.58847656 32.78182617 271.86132812 32.66943359 C212.07326858 23.78329908 149.40632099 47.85393191 105 87 Z " fill="#FEFEFE" transform="translate(0,0)"/>
<path d="M0 0 C1.14919922 0.00499512 2.29839844 0.00999023 3.48242188 0.01513672 C20.33374716 0.35967171 33.63088528 6.51777136 45.98046875 17.9921875 C49.94687193 22.14623455 53.14669725 26.76565301 56.375 31.5 C57.3674226 32.83898288 58.36464872 34.17449328 59.375 35.5 C60.02855469 34.43072266 60.02855469 34.43072266 60.6953125 33.33984375 C69.54429259 19.10869179 79.73939146 10.14219461 95.375 3.5 C95.99906738 3.23074707 96.62313477 2.96149414 97.26611328 2.68408203 C104.09425581 0.04604305 110.74429177 -0.03846212 118 0 C119.24386475 0.00572021 120.48772949 0.01144043 121.76928711 0.01733398 C138.07857765 0.33398818 151.15159322 5.46193973 163.125 16.75 C176.17244527 30.52100664 180.9584523 47.30004363 180.5546875 66.0078125 C178.7024851 102.00496352 162.57984436 131.30182463 136.27124023 155.35180664 C118.29579365 171.20813862 96.81328258 182.18492307 75.375 192.5 C74.22064453 193.06122559 74.22064453 193.06122559 73.04296875 193.63378906 C71.14222864 194.54925852 69.23235233 195.43798131 67.3125 196.3125 C66.31089844 196.77269531 65.30929688 197.23289062 64.27734375 197.70703125 C56.9644719 199.70502988 50.57032133 196.10225516 44.0625 193.0625 C43.09554199 192.61511475 42.12858398 192.16772949 41.13232422 191.70678711 C21.70447276 182.59290016 3.58850491 171.63125104 -12.625 157.5 C-13.13627441 157.06107422 -13.64754883 156.62214844 -14.17431641 156.16992188 C-39.59403785 134.22242296 -54.8675093 105.05665116 -57.625 71.5 C-58.8062667 51.97218482 -56.50257772 34.42737637 -43.1875 19.1875 C-36.61862458 12.26828455 -30.5093526 7.20386445 -21.625 3.5 C-21.00415527 3.23815918 -20.38331055 2.97631836 -19.74365234 2.70654297 C-13.18825726 0.20676819 -6.96636078 -0.03960468 0 0 Z " fill="#FEFEFE" transform="translate(188.625,165.5)"/>
</svg>
